#N canvas 803 35 479 390 10;
#X obj 125 252 gemhead;
#X msg 196 199 draw point;
#X obj 223 291 *~;
#X obj 250 292 *~;
#X obj 196 314 scopeXYZ~ 1024;
#X obj 202 153 gemwin;
#X msg 202 130 create \, 1;
#X obj 313 129 vsl 15 128 0 50 0 0 empty empty empty 0 -9 0 10 -262144
-1 -1 12700 1;
#X obj 196 61 loadbang;
#X text 307 110 size;
#X msg 228 84 1;
#X text 19 19 lil scope;
#X text 19 36 Jerobeam Fenderson / 2014;
#X text 20 54 jerobeamfenderson.net;
#X text 20 189 select your preferred;
#X text 20 207 audio input device at;
#X text 21 225 Media -> Audio Settings...;
#X obj 228 107 dsp;
#X msg 202 222 draw line;
#X msg 208 245 draw linestrip;
#X obj 125 125 hradio 15 1 0 3 empty empty empty 0 -8 0 10 -262144
-1 -1 0;
#X obj 202 176 route 0 1;
#X text 135 108 mode;
#X obj 224 14 inlet~;
#X obj 269 14 inlet~;
#X floatatom 33 96 5 0 100 0 - - -, f 5;
#X msg 33 113 length \$1;
#X obj 319 55 inlet;
#X obj 125 275 color 0 1 1;
#X obj 29 317 rotateXYZ;
#X floatatom 87 294 5 0 0 0 - - -, f 5;
#X msg 61 256 0;
#X obj 374 50 inlet;
#X msg 360 111 512;
#X msg 370 140 1024;
#X msg 388 168 2048;
#X msg 404 200 4096;
#X msg 416 231 8192;
#X obj 372 80 select 1 2 3 4 5;
#X connect 0 0 28 0;
#X connect 1 0 4 0;
#X connect 2 0 4 1;
#X connect 3 0 4 2;
#X connect 6 0 5 0;
#X connect 7 0 3 1;
#X connect 7 0 2 1;
#X connect 8 0 6 0;
#X connect 8 0 1 0;
#X connect 8 0 10 0;
#X connect 8 0 31 0;
#X connect 10 0 7 0;
#X connect 10 0 17 0;
#X connect 18 0 4 0;
#X connect 19 0 4 0;
#X connect 20 0 21 0;
#X connect 21 0 1 0;
#X connect 21 1 18 0;
#X connect 21 2 19 0;
#X connect 23 0 2 0;
#X connect 24 0 3 0;
#X connect 25 0 26 0;
#X connect 26 0 4 0;
#X connect 27 0 7 0;
#X connect 28 0 29 0;
#X connect 29 0 4 0;
#X connect 30 0 29 1;
#X connect 30 0 29 3;
#X connect 31 0 30 0;
#X connect 32 0 38 0;
#X connect 33 0 25 0;
#X connect 34 0 25 0;
#X connect 35 0 25 0;
#X connect 36 0 25 0;
#X connect 37 0 25 0;
#X connect 38 0 33 0;
#X connect 38 1 34 0;
#X connect 38 2 35 0;
#X connect 38 3 36 0;
#X connect 38 4 37 0;
