#N canvas 0 0 504 375 10;
#X obj 125 223 outlet;
#X obj 58 20 inlet;
#X obj 210 67 f \$1;
#X obj 244 18 loadbang;
#X obj 58 56 change;
#X obj 253 67 f \$2;
#X obj 293 67 f \$3;
#X obj 336 67 f \$4;
#X obj 244 40 t b b b b;
#X text 213 92 x1;
#X text 253 90 x2;
#X text 295 94 y1;
#X text 335 92 y2;
#X floatatom 58 102 5 0 0 0 - - -;
#X obj 125 164 expr (($f1 - $f2)/($f3-$f2))*($f5-$f4)+$f4;
#X floatatom 67 201 5 0 0 0 - - -;
#X connect 1 0 4 0;
#X connect 2 0 14 1;
#X connect 3 0 8 0;
#X connect 4 0 13 0;
#X connect 5 0 14 2;
#X connect 6 0 14 3;
#X connect 7 0 14 4;
#X connect 8 0 2 0;
#X connect 8 1 5 0;
#X connect 8 2 6 0;
#X connect 8 3 7 0;
#X connect 13 0 14 0;
#X connect 14 0 0 0;
#X connect 14 0 15 0;
