#N canvas 245 24 568 433 10;
#X obj 308 30 block~ 2;
#X obj 65 29 table \$0-x 2;
#X obj 155 29 table \$0-y 2;
#N canvas 424 398 450 300 receive 0;
#X obj 68 56 tabreceive~ \$0-y;
#X obj 270 59 tabreceive~ \$0-x;
#X obj 68 92 outlet~;
#X obj 270 94 outlet~;
#X connect 0 0 2 0;
#X connect 1 0 3 0;
#X restore 180 70 pd receive;
#N canvas 474 403 450 300 send~ 0;
#X obj 57 53 inlet~;
#X obj 149 50 inlet~;
#X obj 57 100 tabsend~ \$0-x;
#X obj 149 99 tabsend~ \$0-y;
#X connect 0 0 2 0;
#X connect 1 0 3 0;
#X restore 220 400 pd send~;
#X obj 180 143 *~;
#X obj 180 171 +~;
#X obj 180 212 mtof~;
#X obj 180 243 osc~;
#X obj 237 140 *~;
#X obj 237 168 +~;
#X obj 237 212 mtof~;
#X obj 237 243 osc~;
#X obj 380 333 outlet~;
#X obj 126 338 outlet~;
#X obj 140 80 r I1;
#X obj 312 87 r I2;
#X floatatom 70 130 8 0 0 0 f1 - -, f 8;
#X floatatom 371 137 8 0 0 0 f2 - -, f 8;
#X obj 70 106 r f1;
#X obj 371 112 r f2;
#X floatatom 312 110 5 0 0 0 - - -, f 5;
#X floatatom 140 103 5 0 0 0 - - -, f 5;
#X text 425 403 from Claudius Maximus;
#X obj 126 276 *~;
#X obj 126 307 tanh~;
#X obj 380 270 *~;
#X obj 380 302 tanh~;
#X floatatom 440 220 5 0 0 0 - - -, f 5;
#X obj 440 80 inlet;
#X connect 3 0 5 0;
#X connect 3 1 9 0;
#X connect 5 0 6 0;
#X connect 6 0 7 0;
#X connect 7 0 8 0;
#X connect 8 0 24 0;
#X connect 9 0 10 0;
#X connect 10 0 11 0;
#X connect 11 0 12 0;
#X connect 12 0 26 0;
#X connect 15 0 5 1;
#X connect 15 0 22 0;
#X connect 16 0 9 1;
#X connect 16 0 21 0;
#X connect 17 0 6 1;
#X connect 18 0 10 1;
#X connect 19 0 17 0;
#X connect 20 0 18 0;
#X connect 24 0 25 0;
#X connect 25 0 4 0;
#X connect 25 0 14 0;
#X connect 26 0 27 0;
#X connect 27 0 4 1;
#X connect 27 0 13 0;
#X connect 28 0 26 1;
#X connect 28 0 24 1;
#X connect 29 0 28 0;
