#N canvas 12 297 1313 755 10;
#X obj 146 87 xfm_cha;
#X obj 624 27 image AnotherBlueSmall.gif 0;
#X obj 427 139 hsl 200 15 0 1 0 0 vols empty vol 5 8 1 10 #000000 #14fcfc
#14fcfc 0 1;
#X obj 427 64 hsl 200 15 -30 120 0 0 f1s f1r f1 5 8 1 10 #000000 #14fcfc
#14fcfc 0 1;
#X obj 427 82 hsl 200 15 -30 120 0 0 f2s f2r f2 5 8 1 10 #000000 #14fcfc
#14fcfc 0 1;
#X obj 427 101 hsl 200 15 0 100 0 1 idx1s idx1r idx1 5 8 1 10 #000000
#00fcfc #14fcfc 6368 1;
#X obj 427 120 hsl 200 15 0 100 0 1 idx2s idx2r idx2 5 8 1 10 #000000
#14fcfc #14fcfc 3528 1;
#X obj 636 64 hsl 75 15 0 1 0 0 f1fracs f1fracr f1_frac 5 8 1 10 #000000
#14fcfc #14fcfc 0 1;
#X obj 636 82 hsl 75 15 0 1 0 0 f2fracs f2fracr f2_frac 5 8 1 10 #000000
#14fcfc #14fcfc 0 1;
#X obj 636 100 hsl 75 15 0 1 0 1 idx1fracs idx1frac idx1_frac 5 8 1
10 #000000 #14fcfc #14fcfc 3263 1;
#X obj 636 118 hsl 75 15 0 1 0 1 idx2fracs idx2frac idx2_frac 5 8 1
10 #000000 #14fcfc #14fcfc 2622 1;
#N canvas 66 44 711 590 spectrum 0;
#X obj 432 168 cartopol~;
#X obj 432 124 rfft~;
#X obj 380 25 block~ 1024;
#X obj 320 210 vectral~ 1024;
#X obj 319 106 count~ 0 1024 1 1;
#X floatatom 371 144 5 0 0 0 - - -, f 5;
#X msg 468 210 slide 10 10;
#X msg 388 244 range 0 512 \, 2 \, bufsize 512;
#X obj 522 76 inlet~;
#X obj 320 168 *~ 0.55;
#X obj 522 124 *~ 1;
#X floatatom 591 76 5 0 0 0 - - -, f 5;
#X msg 175 53 brgb 0 0 0;
#X msg 174 30 frgb 21 252 255;
#X obj 174 8 loadbang;
#X obj 138 206 cnv 15 100 70 empty empty empty 20 12 0 14 #000000 #404040
0;
#X obj 100 100 Scope~ 84 59 2 3 512 0 512 0 0 0 0 21 252 255 0 0 0
0;
#X connect 0 0 3 2;
#X connect 1 0 0 0;
#X connect 1 1 0 1;
#X connect 3 0 16 0;
#X connect 4 0 3 1;
#X connect 4 0 9 0;
#X connect 5 0 9 1;
#X connect 6 0 3 0;
#X connect 7 0 16 0;
#X connect 8 0 10 0;
#X connect 9 0 3 0;
#X connect 10 0 1 0;
#X connect 11 0 10 1;
#X connect 12 0 16 0;
#X connect 13 0 16 0;
#X connect 14 0 13 0;
#X connect 14 0 12 0;
#X coords 0 -1 1 1 84 59 1 100 100;
#X restore 427 -85 pd spectrum;
#X obj 426 -121 cnv 15 30 30 empty empty X- 20 12 0 20 #000000 #14fcfc
0;
#X obj 717 64 cnv 15 50 15 empty n1f -8.72973 2 8 0 10 #000000 #14fcfc
0;
#X obj 463 -122 cnv 15 30 30 empty empty FEEDBACK 0 12 0 20 #000000
#14fcfc 0;
#X obj 566 -122 cnv 15 30 30 empty empty FM 0 12 0 20 #000000 #14fcfc
0;
#X obj 717 82 cnv 15 50 15 empty n2f 23.6554 2 8 0 10 #000000 #14fcfc
0;
#N canvas 433 184 450 300 set_n1 0;
#X obj 69 47 inlet;
#X obj 111 47 inlet;
#X symbolatom 69 225 10 0 0 0 - - -, f 10;
#X floatatom 69 183 5 0 0 0 - - -, f 5;
#X obj 69 202 list2symbol;
#X obj 96 146 f;
#X obj 69 146 +;
#X obj 153 148 f;
#X obj 126 147 +;
#X obj 126 104 t f b;
#X obj 69 104 t f b;
#X msg 69 246 \; n1f label \$1;
#X obj 33 248 s f1;
#X connect 0 0 10 0;
#X connect 0 0 7 1;
#X connect 1 0 9 0;
#X connect 1 0 5 1;
#X connect 2 0 11 0;
#X connect 3 0 4 0;
#X connect 3 0 12 0;
#X connect 4 0 2 0;
#X connect 5 0 6 1;
#X connect 6 0 3 0;
#X connect 7 0 8 1;
#X connect 8 0 3 0;
#X connect 9 0 8 0;
#X connect 9 1 7 0;
#X connect 10 0 6 0;
#X connect 10 1 5 0;
#X restore 451 461 pd set_n1;
#X obj 451 413 r f1s;
#X obj 502 413 r f1fracs;
#X obj 451 436 int;
#X obj 574 436 int;
#N canvas 433 184 450 300 set_n2 0;
#X obj 69 47 inlet;
#X obj 111 47 inlet;
#X symbolatom 69 225 10 0 0 0 - - -, f 10;
#X floatatom 69 183 5 0 0 0 - - -, f 5;
#X obj 69 202 list2symbol;
#X obj 96 146 f;
#X obj 69 146 +;
#X obj 153 148 f;
#X obj 126 147 +;
#X obj 126 104 t f b;
#X obj 69 104 t f b;
#X msg 69 246 \; n2f label \$1;
#X obj 27 204 s f2;
#X connect 0 0 10 0;
#X connect 0 0 7 1;
#X connect 1 0 9 0;
#X connect 1 0 5 1;
#X connect 2 0 11 0;
#X connect 3 0 4 0;
#X connect 3 0 12 0;
#X connect 4 0 2 0;
#X connect 5 0 6 1;
#X connect 6 0 3 0;
#X connect 7 0 8 1;
#X connect 8 0 3 0;
#X connect 9 0 8 0;
#X connect 9 1 7 0;
#X connect 10 0 6 0;
#X connect 10 1 5 0;
#X restore 574 461 pd set_n2;
#X obj 574 413 r f2s;
#X obj 625 413 r f2fracs;
#X obj 201 435 int;
#X obj 201 412 r idx1s;
#X obj 252 412 r idx1fracs;
#N canvas 433 184 450 300 set_i1 0;
#X obj 69 47 inlet;
#X obj 111 47 inlet;
#X symbolatom 69 225 10 0 0 0 - - -, f 10;
#X floatatom 69 183 5 0 0 0 - - -, f 5;
#X obj 69 202 list2symbol;
#X obj 96 146 f;
#X obj 69 146 +;
#X obj 153 148 f;
#X obj 126 147 +;
#X obj 126 104 t f b;
#X obj 69 104 t f b;
#X msg 69 246 \; i1f label \$1;
#X obj 24 219 s I1;
#X connect 0 0 10 0;
#X connect 0 0 7 1;
#X connect 1 0 9 0;
#X connect 1 0 5 1;
#X connect 2 0 11 0;
#X connect 3 0 4 0;
#X connect 3 0 12 0;
#X connect 4 0 2 0;
#X connect 5 0 6 1;
#X connect 6 0 3 0;
#X connect 7 0 8 1;
#X connect 8 0 3 0;
#X connect 9 0 8 0;
#X connect 9 1 7 0;
#X connect 10 0 6 0;
#X connect 10 1 5 0;
#X restore 201 460 pd set_i1;
#X obj 719 100 cnv 15 30 15 empty i1f 32.4409 2 8 0 10 #000000 #14fcfc
0;
#X obj 718 118 cnv 15 30 15 empty i2f 17.3543 2 8 0 10 #000000 #14fcfc
0;
#X obj 324 435 int;
#X obj 324 412 r idx2s;
#X obj 375 412 r idx2fracs;
#N canvas 433 184 450 300 set_i2 0;
#X obj 69 47 inlet;
#X obj 111 47 inlet;
#X symbolatom 69 225 10 0 0 0 - - -, f 10;
#X floatatom 69 183 5 0 0 0 - - -, f 5;
#X obj 69 202 list2symbol;
#X obj 96 146 f;
#X obj 69 146 +;
#X obj 153 148 f;
#X obj 126 147 +;
#X obj 126 104 t f b;
#X obj 69 104 t f b;
#X msg 69 246 \; i2f label \$1;
#X obj 14 218 s I2;
#X connect 0 0 10 0;
#X connect 0 0 7 1;
#X connect 1 0 9 0;
#X connect 1 0 5 1;
#X connect 2 0 11 0;
#X connect 3 0 4 0;
#X connect 3 0 12 0;
#X connect 4 0 2 0;
#X connect 5 0 6 1;
#X connect 6 0 3 0;
#X connect 7 0 8 1;
#X connect 8 0 3 0;
#X connect 9 0 8 0;
#X connect 9 1 7 0;
#X connect 10 0 6 0;
#X connect 10 1 5 0;
#X restore 324 460 pd set_i2;
#N canvas 139 11 729 518 prepare_gui_data_2----------- 0;
#X obj 668 50 inlet;
#X obj 593 49 inlet;
#X obj 631 49 inlet;
#X obj 515 50 inlet;
#X obj 553 50 inlet;
#X obj 440 48 inlet;
#X obj 478 49 inlet;
#X obj 365 49 inlet;
#X obj 403 49 inlet;
#X obj 187 333 f;
#X obj 213 333 f;
#X obj 239 333 f;
#X obj 265 333 f;
#X obj 291 333 f;
#X obj 317 333 f;
#X obj 343 333 f;
#X obj 369 333 f;
#X obj 395 333 f;
#X obj 225 410 s packed_2;
#X obj 51 211 r pack_p2;
#X obj 26 238 bng 15 250 50 0 empty empty empty 17 7 0 10 #fcfcfc #000000
#000000;
#X obj 51 239 t b b b b b b b b b;
#X obj 225 383 pack f f f f f f f f f;
#X obj 74 47 r f1s;
#X obj 146 94 r f2s;
#X obj 108 70 r f1fracs;
#X obj 174 116 r f2fracs;
#X obj 216 145 r idx1s;
#X obj 248 169 r idx1fracs;
#X obj 292 195 r idx2s;
#X obj 332 217 r idx2fracs;
#X obj 378 251 r pdg;
#X connect 0 0 17 1;
#X connect 1 0 15 1;
#X connect 2 0 16 1;
#X connect 3 0 13 1;
#X connect 4 0 14 1;
#X connect 5 0 11 1;
#X connect 6 0 12 1;
#X connect 7 0 9 1;
#X connect 8 0 10 1;
#X connect 9 0 22 0;
#X connect 10 0 22 1;
#X connect 11 0 22 2;
#X connect 12 0 22 3;
#X connect 13 0 22 4;
#X connect 14 0 22 5;
#X connect 15 0 22 6;
#X connect 16 0 22 7;
#X connect 17 0 22 8;
#X connect 19 0 20 0;
#X connect 19 0 21 0;
#X connect 21 0 9 0;
#X connect 21 1 10 0;
#X connect 21 2 11 0;
#X connect 21 3 12 0;
#X connect 21 4 13 0;
#X connect 21 5 14 0;
#X connect 21 6 15 0;
#X connect 21 7 16 0;
#X connect 21 8 17 0;
#X connect 22 0 18 0;
#X connect 23 0 9 1;
#X connect 24 0 11 1;
#X connect 25 0 10 1;
#X connect 26 0 12 1;
#X connect 27 0 13 1;
#X connect 28 0 14 1;
#X connect 29 0 15 1;
#X connect 30 0 16 1;
#X connect 31 0 17 1;
#X restore 438 265 pd prepare_gui_data_2-----------;
#X obj 146 373 dac~;
#X obj 146 226 *~;
#X obj 257 157 r vols;
#X floatatom 257 180 5 0 0 0 - - -, f 5;
#X obj 146 150 hip~ 5;
#X obj 198 150 hip~ 5;
#X obj 198 119 *~;
#X obj 146 119 *~;
#X obj 72 449 *~;
#X obj 427 44 hsl 128 15 0 100 0 0 empty empty spectrum 5 8 1 10 #000000
#00f8fc #00f8fc 0 1;
#X obj 185 372 lil_scope_inl;
#X obj 427 24 hsl 128 15 0 50 0 0 empty empty scope 5 8 1 10 #000000
#00f8fc #00f8fc 0 1;
#X obj 198 226 *~;
#X obj 146 260 +~;
#N canvas 439 206 432 234 handle_int_frac 0;
#X obj 63 89 int;
#X obj 63 169 +;
#X obj 121 90 int;
#X obj 121 169 +;
#X obj 188 89 int;
#X obj 188 171 +;
#X obj 263 90 int;
#X obj 263 172 +;
#X obj 239 133 t b f;
#X obj 164 129 t b f;
#X obj 99 128 t b f;
#X obj 37 128 t b f;
#X obj 62 27 r f1s;
#X obj 121 29 r f2s;
#X obj 188 28 r idx1s;
#X obj 264 29 r idx2s;
#X obj 37 50 r f1fracs;
#X obj 99 50 r f2fracs;
#X obj 164 50 r idx1fracs;
#X obj 239 51 r idx2fracs;
#X obj 63 194 s f1;
#X obj 121 193 s f2;
#X obj 188 194 s I1;
#X obj 263 195 s I2;
#X connect 0 0 1 0;
#X connect 1 0 20 0;
#X connect 2 0 3 0;
#X connect 3 0 21 0;
#X connect 4 0 5 0;
#X connect 5 0 22 0;
#X connect 6 0 7 0;
#X connect 7 0 23 0;
#X connect 8 0 7 0;
#X connect 8 1 7 1;
#X connect 9 0 5 0;
#X connect 9 1 5 1;
#X connect 10 0 3 0;
#X connect 10 1 3 1;
#X connect 11 0 1 0;
#X connect 11 1 1 1;
#X connect 12 0 0 0;
#X connect 13 0 2 0;
#X connect 14 0 4 0;
#X connect 15 0 6 0;
#X connect 16 0 11 0;
#X connect 17 0 10 0;
#X connect 18 0 9 0;
#X connect 19 0 8 0;
#X restore 372 365 pd handle_int_frac;
#N canvas 71 39 1284 668 new_preset_handling2 0;
#X obj 155 264 inlet;
#X obj 110 339 f;
#N canvas 0 0 450 300 (subpatch) 0;
#X array prst2_1 15 float 1 black black;
#A 0 41.7814 0 65.7211 0 0 0 0 0.709459 0.680905 947.816 3 1 1 0 3
;
#X coords 0 0 14 1 200 140 0;
#X restore 212 426 graph;
#N canvas 0 0 450 300 (subpatch) 0;
#X array prst2_2 15 float 1 black black;
#A 0 -30 0.5 120 0.2 3.76884 0 25.5025 1 0.680905 60 1 0 0 1 2;
#X coords 0 0 14 1 200 140 0;
#X restore 250 426 graph;
#N canvas 0 0 450 300 (subpatch) 0;
#X array prst2_3 15 float 3 black black;
#A 0 71.7588 0 71.7588 1 68.3417 0 68.3417 1 0.680905 947.816 3 1 1
0 0;
#X coords 0 0 1 1 200 140 0;
#X restore 288 426 graph;
#N canvas 0 0 450 300 (subpatch) 0;
#X array prst2_4 15 float 3 black black;
#A 0 70.892 0 82.3116 0 0 0 0 0 0.51005 947.816 1 0 1 0 0;
#X coords 0 0 1 1 200 140 0;
#X restore 326 426 graph;
#N canvas 0 0 450 300 (subpatch) 0;
#X array prst2_5 15 float 3 black black;
#A 0 62.6005 0 50.6533 0 65.3266 0.5 68.3417 0.155405 0.51005 2511.92
1 0 0 1 0;
#X coords 0 0 1 1 200 140 0;
#X restore 212 447 graph;
#N canvas 0 0 450 300 (subpatch) 0;
#X array prst2_6 15 float 3 black black;
#A 0 19.5226 1 20 1 78.8945 0 48.2412 1 0.507538 171.414 1 1 0 1 4
;
#X coords 0 0 1 1 200 140 0;
#X restore 250 447 graph;
#N canvas 0 0 450 300 (subpatch) 0;
#X array prst2_7 15 float 3 black black;
#A 0 6 2200 20 774.545 0.271186 0.644068 0.949153 1 90.7071 171.414
0 0 0 1 2;
#X coords 0 0 1 1 200 140 0;
#X restore 288 447 graph;
#N canvas 0 0 450 300 (subpatch) 0;
#X array prst2_8 15 float 3 black black;
#A 0 4 1000 20 774.545 0 1 0.0169492 1 252.121 947.816 0 1 0 1 2;
#X coords 0 0 1 1 200 140 0;
#X restore 326 447 graph;
#N canvas 0 0 450 300 (subpatch) 0;
#X array prst2_9 15 float 3 black black;
#A 0 -8.81156 0.27027 -16.9372 0.655405 32.6633 0 72.3618 1 100 1624.14
1 2 0 1 2;
#X coords 0 0 1 1 200 140 0;
#X restore 212 468 graph;
#N canvas 0 0 450 300 (subpatch) 0;
#X array prst2_10 15 float 3 black black;
#A 0 20 1900 1730.3 2283.64 0 1 0.0677966 0.169492 10 8000 3 2 1 1
2;
#X coords 0 0 1 1 200 140 0;
#X restore 249 468 graph;
#N canvas 0 0 450 300 (subpatch) 0;
#X array prst2_11 15 float 3 black black;
#A 0 0 0 0 0 0 0 0 0 0 10 0 0 0 0 0;
#X coords 0 0 1 1 200 140 0;
#X restore 287 468 graph;
#N canvas 0 0 450 300 (subpatch) 0;
#X array prst2_12 15 float 3 black black;
#A 0 0 0 0 0 0 0 0 0 0 0 0 0 0 0 0;
#X coords 0 0 1 1 200 140 0;
#X restore 325 468 graph;
#N canvas 0 0 450 300 (subpatch) 0;
#X array prst2_13 15 float 3 black black;
#A 0 0 0 0 0 0 0 0 0 0 0 0 0 0 0 0;
#X coords 0 0 1 1 200 140 0;
#X restore 212 489 graph;
#N canvas 0 0 450 300 (subpatch) 0;
#X array prst2_14 15 float 3 black black;
#A 0 0 0 0 0 0 0 0 0 0 0 0 0 0 0 0;
#X coords 0 0 1 1 200 140 0;
#X restore 249 489 graph;
#N canvas 0 0 450 300 (subpatch) 0;
#X array prst2_15 15 float 3 black black;
#A 0 0 0 0 0 0 0 0 0 0 0 0 0 0 0 0;
#X coords 0 0 1 1 200 140 0;
#X restore 287 489 graph;
#N canvas 0 0 450 300 (subpatch) 0;
#X array prst2_16 15 float 3 black black;
#A 0 0 0 0 0 0 0 0 0 0 0 0 0 0 0 0;
#X coords 0 0 1 1 200 140 0;
#X restore 325 489 graph;
#X obj 383 57 until;
#X obj 422 88 + 1;
#X obj 383 88 float;
#N canvas 41 505 322 107 setparams 0;
#X obj 123 23 inlet;
#X obj 36 22 inlet;
#N canvas 11 115 656 325 setparams-15 0;
#X obj 18 188 float;
#X obj 81 187 float;
#X obj 559 20 inlet;
#X obj 101 17 inlet;
#X obj 143 186 float;
#X obj 207 184 float;
#X obj 263 182 float;
#X obj 326 181 float;
#X obj 391 181 float;
#X obj 456 181 float;
#X obj 532 180 float;
#X floatatom 336 209 5 0 0 0 - - -, f 5;
#X floatatom 274 210 5 0 0 0 - - -, f 5;
#X floatatom 215 211 5 0 0 0 - - -, f 5;
#X floatatom 543 204 5 0 0 0 - - -, f 5;
#X floatatom 465 205 5 0 0 0 - - -, f 5;
#X floatatom 400 207 5 0 0 0 - - -, f 5;
#X floatatom 154 215 5 0 0 0 - - -, f 5;
#X floatatom 95 216 5 0 0 0 - - -, f 5;
#X floatatom 24 212 5 0 0 0 - - -, f 5;
#X obj 101 45 select 0 1 2 3 4 5 6 7 8;
#X obj 207 271 s f2fracr;
#X obj 263 292 s idx1r;
#X obj 326 244 s idx1fracr;
#X obj 399 289 s idx2r;
#X obj 456 245 s idx2fracr;
#X obj 18 276 s f1r;
#X obj 81 271 s f1fracr;
#X obj 144 286 s f2r;
#X obj 18 243 int;
#X obj 145 245 int;
#X obj 266 240 int;
#X obj 405 244 int;
#X obj 533 275 s pdg;
#X connect 0 0 19 0;
#X connect 0 0 29 0;
#X connect 1 0 18 0;
#X connect 1 0 27 0;
#X connect 2 0 0 1;
#X connect 2 0 1 1;
#X connect 2 0 4 1;
#X connect 2 0 5 1;
#X connect 2 0 6 1;
#X connect 2 0 7 1;
#X connect 2 0 8 1;
#X connect 2 0 9 1;
#X connect 2 0 10 1;
#X connect 3 0 20 0;
#X connect 4 0 17 0;
#X connect 4 0 30 0;
#X connect 5 0 13 0;
#X connect 5 0 21 0;
#X connect 6 0 12 0;
#X connect 6 0 31 0;
#X connect 7 0 11 0;
#X connect 7 0 23 0;
#X connect 8 0 16 0;
#X connect 8 0 32 0;
#X connect 9 0 15 0;
#X connect 9 0 25 0;
#X connect 10 0 14 0;
#X connect 10 0 33 0;
#X connect 20 0 0 0;
#X connect 20 1 1 0;
#X connect 20 2 4 0;
#X connect 20 3 5 0;
#X connect 20 4 6 0;
#X connect 20 5 7 0;
#X connect 20 6 8 0;
#X connect 20 7 9 0;
#X connect 20 8 10 0;
#X connect 29 0 26 0;
#X connect 30 0 28 0;
#X connect 31 0 22 0;
#X connect 32 0 24 0;
#X restore 36 67 pd setparams-15;
#X connect 0 0 2 1;
#X connect 1 0 2 0;
#X restore 592 370 pd setparams;
#X obj 592 134 t f f;
#X obj 264 256 spigot;
#X obj 385 257 spigot;
#X obj 297 230 == 1;
#X obj 418 230 == 2;
#X obj 828 90 int;
#X msg 419 27 0;
#X obj 499 258 spigot;
#X obj 532 230 == 3;
#X obj 614 253 spigot;
#X obj 647 229 == 4;
#X obj 731 254 spigot;
#X obj 851 254 spigot;
#X obj 965 253 spigot;
#X obj 1079 252 spigot;
#X obj 764 229 == 5;
#X obj 884 228 == 6;
#X obj 998 228 == 7;
#X obj 1112 227 == 8;
#X obj 1179 252 spigot;
#X obj 1212 228 == 9;
#X obj 937 72 spigot;
#X obj 970 50 == 0;
#X obj 937 21 * 0;
#X text 481 24 store/recall parameters (s and r) to/from tables;
#X text 1003 51 init;
#X text 483 41 logic from M. Brinkmann;
#X obj 215 583 spigot;
#X obj 368 587 spigot;
#X obj 220 561 == 1;
#X obj 375 565 == 2;
#X obj 995 450 int;
#N canvas 112 184 572 523 getparameters136 0;
#X obj 72 -110 inlet;
#X obj 72 149 outlet;
#X obj 72 -21 until;
#X obj 116 11 + 1;
#X obj 72 12 float;
#X obj 142 149 outlet;
#X obj 72 -72 t b b;
#X msg 116 -21 0;
#X obj 72 48 t f f;
#X msg 72 -46 15;
#N canvas 265 60 1101 479 parameters-15 0;
#X obj 145 244 outlet;
#X obj 25 114 float;
#X obj 85 115 float;
#X obj 144 114 float;
#X obj 204 115 float;
#X obj 262 114 float;
#X obj 322 115 float;
#X obj 381 114 float;
#X obj 446 115 float;
#X obj 503 114 float;
#X obj 137 -101 inlet;
#X obj 453 -55 bng 15 250 50 0 empty empty empty 17 7 0 10 #fcfcfc
#000000 #000000;
#X obj 575 -117 r packed_2;
#X obj 342 -84 print preset2.store:;
#X obj 575 -84 unpack f f f f f f f f f;
#X obj 137 -71 select 0 1 2 3 4 5 6 7 8;
#X connect 1 0 0 0;
#X connect 2 0 0 0;
#X connect 3 0 0 0;
#X connect 4 0 0 0;
#X connect 5 0 0 0;
#X connect 6 0 0 0;
#X connect 7 0 0 0;
#X connect 8 0 0 0;
#X connect 9 0 0 0;
#X connect 10 0 15 0;
#X connect 12 0 11 0;
#X connect 12 0 13 0;
#X connect 12 0 14 0;
#X connect 14 0 1 1;
#X connect 14 1 2 1;
#X connect 14 2 3 1;
#X connect 14 3 4 1;
#X connect 14 4 5 1;
#X connect 14 5 6 1;
#X connect 14 6 7 1;
#X connect 14 7 8 1;
#X connect 14 8 9 1;
#X connect 15 0 1 0;
#X connect 15 1 2 0;
#X connect 15 2 3 0;
#X connect 15 3 4 0;
#X connect 15 4 5 0;
#X connect 15 5 6 0;
#X connect 15 6 7 0;
#X connect 15 7 8 0;
#X connect 15 8 9 0;
#X restore 72 104 pd parameters-15;
#X connect 0 0 6 0;
#X connect 2 0 4 0;
#X connect 3 0 4 1;
#X connect 4 0 3 0;
#X connect 4 0 8 0;
#X connect 6 0 9 0;
#X connect 6 1 7 0;
#X connect 7 0 4 0;
#X connect 8 0 10 0;
#X connect 8 1 5 0;
#X connect 9 0 2 0;
#X connect 10 0 1 0;
#X restore 459 431 pd getparameters136;
#X obj 491 590 spigot;
#X obj 496 566 == 3;
#X obj 614 591 spigot;
#X obj 620 567 == 4;
#X obj 740 591 spigot;
#X obj 745 567 == 5;
#X obj 862 590 spigot;
#X obj 867 567 == 6;
#X obj 984 590 spigot;
#X obj 990 565 == 7;
#X obj 1105 589 spigot;
#X obj 1110 565 == 8;
#X obj 1208 580 spigot;
#X obj 1214 558 == 9;
#X obj 154 123 f;
#X obj 85 86 t b b;
#X text 72 230 store a preset;
#X text 84 4 get a preset;
#X obj 383 -5 t b b;
#X obj 71 313 t b b b;
#X floatatom 170 232 5 0 0 0 - - -, f 5;
#X obj 264 280 tabread prst2_1;
#X obj 1179 275 tabread prst2_9;
#X obj 385 280 tabread prst2_2;
#X obj 499 280 tabread prst2_3;
#X obj 614 279 tabread prst2_4;
#X obj 731 278 tabread prst2_5;
#X obj 851 277 tabread prst2_6;
#X obj 965 278 tabread prst2_7;
#X obj 1079 277 tabread prst2_8;
#X obj 214 630 tabwrite prst2_1;
#X obj 1196 629 tabwrite prst2_9;
#X obj 347 631 tabwrite prst2_2;
#X obj 474 631 tabwrite prst2_3;
#X obj 597 632 tabwrite prst2_4;
#X obj 723 632 tabwrite prst2_5;
#X obj 845 631 tabwrite prst2_6;
#X obj 967 631 tabwrite prst2_7;
#X obj 1088 630 tabwrite prst2_8;
#X obj 71 262 r set_p2;
#X obj 90 371 s pack_p2;
#X obj 85 35 r get_p2;
#X obj 71 399 delay 10;
#X msg 383 27 9;
#X floatatom 264 310 5 0 0 0 - - -, f 5;
#X floatatom 385 303 5 0 0 0 - - -, f 5;
#X floatatom 499 303 5 0 0 0 - - -, f 5;
#X floatatom 614 302 5 0 0 0 - - -, f 5;
#X floatatom 731 301 5 0 0 0 - - -, f 5;
#X floatatom 851 300 5 0 0 0 - - -, f 5;
#X floatatom 965 301 5 0 0 0 - - -, f 5;
#X floatatom 1079 300 5 0 0 0 - - -, f 5;
#X floatatom 1179 298 5 0 0 0 - - -, f 5;
#X floatatom 190 615 5 0 0 0 - - -, f 5;
#X floatatom 368 610 5 0 0 0 - - -, f 5;
#X floatatom 491 613 5 0 0 0 - - -, f 5;
#X floatatom 614 614 5 0 0 0 - - -, f 5;
#X floatatom 740 614 5 0 0 0 - - -, f 5;
#X floatatom 862 613 5 0 0 0 - - -, f 5;
#X floatatom 984 613 5 0 0 0 - - -, f 5;
#X floatatom 1105 612 5 0 0 0 - - -, f 5;
#X floatatom 1208 603 5 0 0 0 - - -, f 5;
#X connect 0 0 1 1;
#X connect 0 0 69 1;
#X connect 0 0 75 0;
#X connect 1 0 53 0;
#X connect 18 0 20 0;
#X connect 19 0 20 1;
#X connect 20 0 19 0;
#X connect 20 0 22 0;
#X connect 22 0 21 0;
#X connect 22 1 23 0;
#X connect 22 1 24 0;
#X connect 22 1 29 0;
#X connect 22 1 31 0;
#X connect 22 1 33 0;
#X connect 22 1 34 0;
#X connect 22 1 35 0;
#X connect 22 1 36 0;
#X connect 22 1 41 0;
#X connect 22 1 45 0;
#X connect 23 0 76 0;
#X connect 24 0 78 0;
#X connect 25 0 23 1;
#X connect 26 0 24 1;
#X connect 27 0 25 0;
#X connect 27 0 26 0;
#X connect 27 0 30 0;
#X connect 27 0 32 0;
#X connect 27 0 37 0;
#X connect 27 0 38 0;
#X connect 27 0 39 0;
#X connect 27 0 40 0;
#X connect 27 0 42 0;
#X connect 27 0 44 0;
#X connect 28 0 20 0;
#X connect 29 0 79 0;
#X connect 30 0 29 1;
#X connect 31 0 80 0;
#X connect 32 0 31 1;
#X connect 33 0 81 0;
#X connect 34 0 82 0;
#X connect 35 0 83 0;
#X connect 36 0 84 0;
#X connect 37 0 33 1;
#X connect 38 0 34 1;
#X connect 39 0 35 1;
#X connect 40 0 36 1;
#X connect 41 0 77 0;
#X connect 42 0 41 1;
#X connect 43 0 21 1;
#X connect 44 0 43 1;
#X connect 45 0 43 0;
#X connect 49 0 85 0;
#X connect 49 0 108 0;
#X connect 50 0 87 0;
#X connect 50 0 109 0;
#X connect 51 0 49 1;
#X connect 52 0 50 1;
#X connect 53 0 51 0;
#X connect 53 0 52 0;
#X connect 53 0 56 0;
#X connect 53 0 58 0;
#X connect 53 0 60 0;
#X connect 53 0 62 0;
#X connect 53 0 64 0;
#X connect 53 0 66 0;
#X connect 53 0 68 0;
#X connect 54 0 49 0;
#X connect 54 0 50 0;
#X connect 54 0 55 0;
#X connect 54 0 57 0;
#X connect 54 0 59 0;
#X connect 54 0 61 0;
#X connect 54 0 63 0;
#X connect 54 0 65 0;
#X connect 54 0 67 0;
#X connect 54 1 85 1;
#X connect 54 1 86 1;
#X connect 54 1 87 1;
#X connect 54 1 88 1;
#X connect 54 1 89 1;
#X connect 54 1 90 1;
#X connect 54 1 91 1;
#X connect 54 1 92 1;
#X connect 54 1 93 1;
#X connect 55 0 88 0;
#X connect 55 0 110 0;
#X connect 56 0 55 1;
#X connect 57 0 89 0;
#X connect 57 0 111 0;
#X connect 58 0 57 1;
#X connect 59 0 90 0;
#X connect 59 0 112 0;
#X connect 60 0 59 1;
#X connect 61 0 91 0;
#X connect 61 0 113 0;
#X connect 62 0 61 1;
#X connect 63 0 92 0;
#X connect 63 0 114 0;
#X connect 64 0 63 1;
#X connect 65 0 93 0;
#X connect 65 0 115 0;
#X connect 66 0 65 1;
#X connect 67 0 86 0;
#X connect 67 0 116 0;
#X connect 68 0 67 1;
#X connect 69 0 27 0;
#X connect 70 0 73 0;
#X connect 70 1 69 0;
#X connect 73 0 98 0;
#X connect 73 1 28 0;
#X connect 74 0 97 0;
#X connect 74 1 95 0;
#X connect 74 2 1 0;
#X connect 76 0 21 1;
#X connect 76 0 99 0;
#X connect 77 0 21 1;
#X connect 77 0 107 0;
#X connect 78 0 21 1;
#X connect 78 0 100 0;
#X connect 79 0 21 1;
#X connect 79 0 101 0;
#X connect 80 0 21 1;
#X connect 80 0 102 0;
#X connect 81 0 21 1;
#X connect 81 0 103 0;
#X connect 82 0 21 1;
#X connect 82 0 104 0;
#X connect 83 0 21 1;
#X connect 83 0 105 0;
#X connect 84 0 21 1;
#X connect 84 0 106 0;
#X connect 94 0 74 0;
#X connect 96 0 70 0;
#X connect 97 0 54 0;
#X connect 98 0 18 0;
#X restore 643 233 pd new_preset_handling2;
#X obj 663 162 cnv 19 19 19 empty empty empty 28 12 0 14 #14fcfc #404040
0;
#X obj 665 164 bng 15 250 50 0 set_p2 empty STORE 24 7 0 10 #000000
#14fcfc #14fcfc;
#X obj 663 138 cnv 19 19 19 empty empty empty 26 12 0 14 #14fcfc #404040
0;
#X obj 665 140 bng 15 250 50 0 get_p2 empty RECALL 24 7 0 10 #000000
#14fcfc #14fcfc;
#X obj 641 138 cnv 19 19 19 empty empty empty 26 12 0 14 #14fcfc #404040
0;
#X obj 643 140 bng 15 250 50 0 increase_prst empty + 4 7 0 10 #000000
#14fcfc #14fcfc;
#X obj 641 162 cnv 19 19 19 empty empty empty 26 12 0 14 #14fcfc #404040
0;
#X obj 643 164 bng 15 250 50 0 decrease_prst empty - 5 7 0 10 #000000
#14fcfc #14fcfc;
#N canvas 266 126 949 473 handle_numebrs 0;
#X obj 261 7 inlet;
#X floatatom 313 81 5 0 63 0 - - -, f 5;
#X obj 372 119 int;
#X obj 372 147 + 1;
#X obj 298 122 int;
#X obj 305 147 - 1;
#X msg 224 125 set \$1;
#X obj 146 124 loadbang;
#X msg 225 149 9;
#X obj 141 262 outlet;
#X obj 307 6 inlet;
#X text 273 -16 +;
#X text 318 -15 -;
#X symbolatom 260 340 10 0 0 0 - - -, f 10;
#X obj 260 317 list2symbol;
#X obj 359 285 list prepend 1 2;
#X obj 300 204 t f b;
#X msg 342 248 preset;
#X obj 372 175 clip 1 16;
#X msg 260 366 \; cnvprs label \$1;
#X connect 0 0 2 0;
#X connect 1 0 2 1;
#X connect 1 0 4 1;
#X connect 1 0 6 0;
#X connect 1 0 9 0;
#X connect 1 0 16 0;
#X connect 2 0 3 0;
#X connect 3 0 18 0;
#X connect 4 0 5 0;
#X connect 5 0 18 0;
#X connect 6 0 8 0;
#X connect 7 0 8 0;
#X connect 8 0 1 0;
#X connect 10 0 4 0;
#X connect 13 0 19 0;
#X connect 14 0 13 0;
#X connect 16 0 15 0;
#X connect 16 0 14 0;
#X connect 16 1 17 0;
#X connect 17 0 15 1;
#X connect 18 0 1 0;
#X restore 643 210 pd handle_numebrs;
#X obj 768 163 cnv 15 20 15 empty empty preset 2 8 0 10 #000000 #14fcfc
0;
#X obj 809 163 cnv 15 24 17 empty cnvprs 9 2 8 0 10 #000000 #14fcfc
0;
#X obj 427 158 hsl 128 15 1 450 0 0 empty pdg pre-distortion.gain 5
6 1 10 #000000 #00f8fc #14fcfc 0 1;
#X obj 87 -94 loadbang;
#X msg 123 -55 1;
#X obj 564 23 hradio 15 1 0 5 empty empty empty 0 -8 0 10 #fcfcfc #000000
#000000 0;
#X obj 261 218 + 1;
#X msg 87 -56 0.5;
#X obj 186 302 z~ 150;
#X obj 186 331 *~ -1;
#X obj 219 273 int;
#N canvas 435 234 450 300 set_pdg 0;
#X obj 69 47 inlet;
#X obj 111 47 inlet;
#X symbolatom 69 225 10 0 0 0 - - -, f 10;
#X floatatom 69 183 5 0 0 0 - - -, f 5;
#X obj 69 202 list2symbol;
#X obj 96 146 f;
#X obj 69 146 +;
#X obj 153 148 f;
#X obj 126 147 +;
#X obj 126 104 t f b;
#X obj 69 104 t f b;
#X obj 27 204 s f2;
#X msg 69 246 \; pdgl label \$1;
#X connect 0 0 10 0;
#X connect 0 0 7 1;
#X connect 1 0 9 0;
#X connect 1 0 5 1;
#X connect 2 0 12 0;
#X connect 3 0 4 0;
#X connect 3 0 11 0;
#X connect 4 0 2 0;
#X connect 5 0 6 1;
#X connect 6 0 3 0;
#X connect 7 0 8 1;
#X connect 8 0 3 0;
#X connect 9 0 8 0;
#X connect 9 1 7 0;
#X connect 10 0 6 0;
#X connect 10 1 5 0;
#X restore 372 212 pd set_pdg;
#X obj 571 157 cnv 15 56 17 empty pdgl 1 2 8 0 10 #000000 #14fcfc 0
;
#X obj 565 44 hsl 70 15 0 1500 0 0 empty empty LRdelay 5 6 1 10 #000000
#00f8fc #14fcfc 690 1;
#X msg 161 -56 150;
#X obj 73 472 s~ tospectrum;
#X obj 306 -64 r~ tospectrum;
#X obj 87 413 r spectrumgain;
#X obj 306 74 s spectrumgain;
#X text 233 330 phase inversion;
#X text 233 302 samples delay L-R;
#X text 11 -124 CFFM - alberto zin \, 2014-2017 \, a XFM noise exploration
patch;
#X floatatom 250 274 5 0 0 0 - - -, f 5;
#X floatatom 371 38 5 0 0 0 - - -, f 5;
#X obj 825 275 ctlin;
#X floatatom 825 303 5 0 0 0 - - -, f 5;
#X floatatom 865 303 5 0 0 0 - - -, f 5;
#X floatatom 905 303 5 0 0 0 - - -, f 5;
#X obj 785 358 == 14;
#X floatatom 785 380 5 0 0 0 - - -, f 5;
#X obj 785 401 gate;
#X floatatom 828 379 5 0 0 0 - - -, f 5;
#X obj 828 400 gate;
#X floatatom 868 380 5 0 0 0 - - -, f 5;
#X obj 868 401 gate;
#X floatatom 908 379 5 0 0 0 - - -, f 5;
#X obj 908 400 gate;
#X floatatom 948 379 5 0 0 0 - - -, f 5;
#X obj 948 400 gate;
#X floatatom 991 378 5 0 0 0 - - -, f 5;
#X obj 991 399 gate;
#X floatatom 1033 377 5 0 0 0 - - -, f 5;
#X obj 1033 398 gate;
#X floatatom 1075 377 5 0 0 0 - - -, f 5;
#X obj 1075 398 gate;
#X floatatom 785 423 5 0 0 0 - - -, f 5;
#X floatatom 828 422 5 0 0 0 - - -, f 5;
#X floatatom 868 423 5 0 0 0 - - -, f 5;
#X floatatom 908 422 5 0 0 0 - - -, f 5;
#X floatatom 948 422 5 0 0 0 - - -, f 5;
#X floatatom 991 421 5 0 0 0 - - -, f 5;
#X floatatom 1033 420 5 0 0 0 - - -, f 5;
#X floatatom 1075 420 5 0 0 0 - - -, f 5;
#X floatatom 1117 377 5 0 0 0 - - -, f 5;
#X obj 1117 398 gate;
#X floatatom 1159 377 5 0 0 0 - - -, f 5;
#X obj 1159 398 gate;
#X floatatom 1117 420 5 0 0 0 - - -, f 5;
#X floatatom 1159 420 5 0 0 0 - - -, f 5;
#X obj 828 357 == 15;
#X obj 868 358 == 16;
#X obj 908 357 == 17;
#X obj 948 357 == 2;
#X obj 991 356 == 3;
#X obj 1033 355 == 4;
#X obj 1075 355 == 5;
#X obj 1117 355 == 18;
#X obj 747 448 linmap 0 127 -30 120;
#X obj 827 499 linmap 0 127 0 100;
#X obj 754 476 linmap 0 127 -30 120;
#X obj 853 526 linmap 0 127 0 100;
#X obj 912 455 linmap 0 127 0 1;
#X obj 942 482 linmap 0 127 0 1;
#X obj 988 508 linmap 0 127 0 1;
#X obj 1027 537 linmap 0 127 0 1;
#X obj 1159 445 linmap 0 127 0 1500;
#X obj 1159 355 == 19;
#X text 902 273 Korg NanoKontrol Mapping;
#X floatatom 1104 145 5 0 0 0 - - -, f 5;
#X obj 1104 166 gate;
#X floatatom 1146 145 5 0 0 0 - - -, f 5;
#X obj 1146 166 gate;
#X floatatom 1104 188 5 0 0 0 - - -, f 5;
#X floatatom 1146 188 5 0 0 0 - - -, f 5;
#X obj 1104 123 == 20;
#X obj 1146 123 == 21;
#X obj 1073 239 linmap 0 127 1 100;
#X obj 1146 213 linmap 0 127 0 50;
#X obj 1171 553 exp;
#X floatatom 1171 575 5 0 0 0 - - -, f 5;
#X obj 1086 471 linmap 0 127 0.0001 6;
#X msg 34 -28 \; pd dsp 1;
#X connect 0 0 43 0;
#X connect 0 1 42 0;
#X connect 3 0 35 0;
#X connect 4 0 35 2;
#X connect 5 0 35 4;
#X connect 6 0 35 6;
#X connect 7 0 35 1;
#X connect 8 0 35 3;
#X connect 9 0 35 5;
#X connect 10 0 35 7;
#X connect 18 0 20 0;
#X connect 19 0 17 1;
#X connect 20 0 17 0;
#X connect 21 0 22 0;
#X connect 23 0 21 0;
#X connect 24 0 22 1;
#X connect 25 0 28 0;
#X connect 26 0 25 0;
#X connect 27 0 28 1;
#X connect 31 0 34 0;
#X connect 32 0 31 0;
#X connect 33 0 34 1;
#X connect 37 0 49 0;
#X connect 38 0 37 1;
#X connect 38 0 39 0;
#X connect 38 0 48 1;
#X connect 40 0 37 0;
#X connect 41 0 48 0;
#X connect 42 0 41 0;
#X connect 43 0 40 0;
#X connect 44 0 76 0;
#X connect 45 0 79 0;
#X connect 47 0 46 2;
#X connect 48 0 49 1;
#X connect 49 0 44 0;
#X connect 49 0 36 0;
#X connect 49 0 69 0;
#X connect 49 0 46 0;
#X connect 57 0 60 0;
#X connect 59 0 60 1;
#X connect 60 0 51 0;
#X connect 63 0 0 0;
#X connect 63 0 35 8;
#X connect 63 0 72 0;
#X connect 64 0 65 0;
#X connect 64 0 68 0;
#X connect 64 0 75 0;
#X connect 64 0 152 0;
#X connect 65 0 63 0;
#X connect 66 0 67 0;
#X connect 67 0 46 3;
#X connect 68 0 43 1;
#X connect 68 0 42 1;
#X connect 69 0 70 0;
#X connect 70 0 36 1;
#X connect 70 0 46 1;
#X connect 71 0 69 1;
#X connect 71 0 83 0;
#X connect 74 0 71 0;
#X connect 75 0 74 0;
#X connect 77 0 11 0;
#X connect 78 0 44 1;
#X connect 85 0 86 0;
#X connect 85 1 87 0;
#X connect 85 2 88 0;
#X connect 86 0 91 1;
#X connect 86 0 93 1;
#X connect 86 0 95 1;
#X connect 86 0 97 1;
#X connect 86 0 99 1;
#X connect 86 0 101 1;
#X connect 86 0 103 1;
#X connect 86 0 105 1;
#X connect 86 0 115 1;
#X connect 86 0 117 1;
#X connect 86 0 140 1;
#X connect 86 0 142 1;
#X connect 87 0 89 0;
#X connect 87 0 120 0;
#X connect 87 0 121 0;
#X connect 87 0 122 0;
#X connect 87 0 123 0;
#X connect 87 0 124 0;
#X connect 87 0 125 0;
#X connect 87 0 126 0;
#X connect 87 0 127 0;
#X connect 87 0 137 0;
#X connect 87 0 145 0;
#X connect 87 0 146 0;
#X connect 89 0 90 0;
#X connect 90 0 91 0;
#X connect 91 0 106 0;
#X connect 92 0 93 0;
#X connect 93 0 107 0;
#X connect 94 0 95 0;
#X connect 95 0 108 0;
#X connect 96 0 97 0;
#X connect 97 0 109 0;
#X connect 98 0 99 0;
#X connect 99 0 110 0;
#X connect 100 0 101 0;
#X connect 101 0 111 0;
#X connect 102 0 103 0;
#X connect 103 0 112 0;
#X connect 104 0 105 0;
#X connect 105 0 113 0;
#X connect 106 0 128 0;
#X connect 107 0 130 0;
#X connect 108 0 129 0;
#X connect 109 0 131 0;
#X connect 110 0 132 0;
#X connect 111 0 133 0;
#X connect 112 0 134 0;
#X connect 113 0 135 0;
#X connect 114 0 115 0;
#X connect 115 0 118 0;
#X connect 116 0 117 0;
#X connect 117 0 119 0;
#X connect 118 0 151 0;
#X connect 119 0 136 0;
#X connect 120 0 92 0;
#X connect 121 0 94 0;
#X connect 122 0 96 0;
#X connect 123 0 98 0;
#X connect 124 0 100 0;
#X connect 125 0 102 0;
#X connect 126 0 104 0;
#X connect 127 0 114 0;
#X connect 128 0 3 0;
#X connect 129 0 5 0;
#X connect 130 0 4 0;
#X connect 131 0 6 0;
#X connect 132 0 7 0;
#X connect 133 0 8 0;
#X connect 134 0 9 0;
#X connect 135 0 10 0;
#X connect 136 0 74 0;
#X connect 137 0 116 0;
#X connect 139 0 140 0;
#X connect 140 0 143 0;
#X connect 141 0 142 0;
#X connect 142 0 144 0;
#X connect 143 0 147 0;
#X connect 144 0 148 0;
#X connect 145 0 139 0;
#X connect 146 0 141 0;
#X connect 147 0 45 0;
#X connect 148 0 47 0;
#X connect 149 0 150 0;
#X connect 150 0 63 0;
#X connect 151 0 149 0;
#X coords 0 -1 1 1 422 318 1 413 -132;
